<svg xmlns="http://www.w3.org/2000/svg" width="812" height="480" viewBox="0 0 812 480" font-family="ui-sans-serif, system-ui, -apple-system, 'Segoe UI', Roboto, sans-serif" role="img" aria-label="Skills Mastered by Session for six Simulated Learners under the Coach and under the Baseline">
<rect width="812" height="480" fill="#FFF7EC"/>
<text x="50" y="28" font-size="17" font-weight="600" fill="#3B2E2A">Skills Mastered by Session: Coach vs Baseline</text>
<text x="50" y="46" font-size="11.5" fill="#7A6660">20 Sessions, 5 Skills, six Simulated Learners on identical seeds. Coach: the Generation fake. Baseline: the fixed 8-of-10 gate.</text>
<line x1="592" x2="610" y1="24" y2="24" stroke="#2a78d6" stroke-width="2" stroke-linecap="round"/><circle cx="601" cy="24" r="3.5" fill="#2a78d6" stroke="#FFF7EC" stroke-width="1.5"/><text x="616" y="28" font-size="11.5" fill="#3B2E2A">Coach</text><line x1="674" x2="692" y1="24" y2="24" stroke="#eb6834" stroke-width="2" stroke-linecap="round"/><circle cx="683" cy="24" r="3.5" fill="#eb6834" stroke="#FFF7EC" stroke-width="1.5"/><text x="698" y="28" font-size="11.5" fill="#3B2E2A">Baseline</text>
<g><text x="50" y="80" font-size="13" font-weight="600" fill="#3B2E2A">Strong</text><text x="50" y="95" font-size="10.5" fill="#7A6660">first-try Coach 93% · Baseline 91%</text><line x1="50" x2="248" y1="224" y2="224" stroke="#EED7B5" stroke-width="1"/><text x="44" y="227.5" text-anchor="end" font-size="10" fill="#7A6660">0</text><line x1="50" x2="248" y1="200.8" y2="200.8" stroke="#EED7B5" stroke-width="1"/><text x="44" y="204.3" text-anchor="end" font-size="10" fill="#7A6660">1</text><line x1="50" x2="248" y1="177.6" y2="177.6" stroke="#EED7B5" stroke-width="1"/><text x="44" y="181.1" text-anchor="end" font-size="10" fill="#7A6660">2</text><line x1="50" x2="248" y1="154.4" y2="154.4" stroke="#EED7B5" stroke-width="1"/><text x="44" y="157.9" text-anchor="end" font-size="10" fill="#7A6660">3</text><line x1="50" x2="248" y1="131.2" y2="131.2" stroke="#EED7B5" stroke-width="1"/><text x="44" y="134.7" text-anchor="end" font-size="10" fill="#7A6660">4</text><line x1="50" x2="248" y1="108" y2="108" stroke="#EED7B5" stroke-width="1"/><text x="44" y="111.5" text-anchor="end" font-size="10" fill="#7A6660">5</text><text x="50" y="238" text-anchor="middle" font-size="10" fill="#7A6660">1</text><text x="91.68421052631578" y="238" text-anchor="middle" font-size="10" fill="#7A6660">5</text><text x="143.78947368421052" y="238" text-anchor="middle" font-size="10" fill="#7A6660">10</text><text x="195.89473684210526" y="238" text-anchor="middle" font-size="10" fill="#7A6660">15</text><text x="248" y="238" text-anchor="middle" font-size="10" fill="#7A6660">20</text><polyline points="50.0,224.0 60.4,200.8 70.8,177.6 81.3,154.4 91.7,154.4 102.1,131.2 112.5,131.2 122.9,108.0 133.4,108.0 143.8,108.0 154.2,108.0 164.6,108.0 175.1,108.0 185.5,108.0 195.9,108.0 206.3,108.0 216.7,108.0 227.2,108.0 237.6,108.0 248.0,108.0" fill="none" stroke="#eb6834" stroke-width="2" stroke-linejoin="round" stroke-linecap="round"/><circle cx="248.0" cy="108.0" r="4" fill="#eb6834" stroke="#FFF7EC" stroke-width="2"/><polyline points="50.0,224.0 60.4,200.8 70.8,177.6 81.3,154.4 91.7,154.4 102.1,131.2 112.5,131.2 122.9,108.0 133.4,108.0 143.8,108.0 154.2,108.0 164.6,108.0 175.1,108.0 185.5,108.0 195.9,108.0 206.3,108.0 216.7,108.0 227.2,108.0 237.6,108.0 248.0,108.0" fill="none" stroke="#2a78d6" stroke-width="2" stroke-linejoin="round" stroke-linecap="round"/><circle cx="248.0" cy="108.0" r="4" fill="#2a78d6" stroke="#FFF7EC" stroke-width="2"/><text x="256.0" y="111.5" font-size="10.5" font-weight="600" fill="#3B2E2A">5</text></g>
<g><text x="310" y="80" font-size="13" font-weight="600" fill="#3B2E2A">Average</text><text x="310" y="95" font-size="10.5" fill="#7A6660">first-try Coach 76% · Baseline 77%</text><line x1="310" x2="508" y1="224" y2="224" stroke="#EED7B5" stroke-width="1"/><text x="304" y="227.5" text-anchor="end" font-size="10" fill="#7A6660">0</text><line x1="310" x2="508" y1="200.8" y2="200.8" stroke="#EED7B5" stroke-width="1"/><text x="304" y="204.3" text-anchor="end" font-size="10" fill="#7A6660">1</text><line x1="310" x2="508" y1="177.6" y2="177.6" stroke="#EED7B5" stroke-width="1"/><text x="304" y="181.1" text-anchor="end" font-size="10" fill="#7A6660">2</text><line x1="310" x2="508" y1="154.4" y2="154.4" stroke="#EED7B5" stroke-width="1"/><text x="304" y="157.9" text-anchor="end" font-size="10" fill="#7A6660">3</text><line x1="310" x2="508" y1="131.2" y2="131.2" stroke="#EED7B5" stroke-width="1"/><text x="304" y="134.7" text-anchor="end" font-size="10" fill="#7A6660">4</text><line x1="310" x2="508" y1="108" y2="108" stroke="#EED7B5" stroke-width="1"/><text x="304" y="111.5" text-anchor="end" font-size="10" fill="#7A6660">5</text><text x="310" y="238" text-anchor="middle" font-size="10" fill="#7A6660">1</text><text x="351.6842105263158" y="238" text-anchor="middle" font-size="10" fill="#7A6660">5</text><text x="403.7894736842105" y="238" text-anchor="middle" font-size="10" fill="#7A6660">10</text><text x="455.89473684210526" y="238" text-anchor="middle" font-size="10" fill="#7A6660">15</text><text x="508" y="238" text-anchor="middle" font-size="10" fill="#7A6660">20</text><polyline points="310.0,224.0 320.4,200.8 330.8,200.8 341.3,200.8 351.7,177.6 362.1,177.6 372.5,154.4 382.9,154.4 393.4,154.4 403.8,131.2 414.2,131.2 424.6,108.0 435.1,108.0 445.5,108.0 455.9,108.0 466.3,108.0 476.7,108.0 487.2,108.0 497.6,108.0 508.0,108.0" fill="none" stroke="#eb6834" stroke-width="2" stroke-linejoin="round" stroke-linecap="round"/><circle cx="508.0" cy="108.0" r="4" fill="#eb6834" stroke="#FFF7EC" stroke-width="2"/><polyline points="310.0,224.0 320.4,200.8 330.8,200.8 341.3,177.6 351.7,177.6 362.1,154.4 372.5,154.4 382.9,154.4 393.4,154.4 403.8,154.4 414.2,131.2 424.6,131.2 435.1,108.0 445.5,108.0 455.9,108.0 466.3,108.0 476.7,108.0 487.2,108.0 497.6,108.0 508.0,108.0" fill="none" stroke="#2a78d6" stroke-width="2" stroke-linejoin="round" stroke-linecap="round"/><circle cx="508.0" cy="108.0" r="4" fill="#2a78d6" stroke="#FFF7EC" stroke-width="2"/><text x="516.0" y="111.5" font-size="10.5" font-weight="600" fill="#3B2E2A">5</text></g>
<g><text x="570" y="80" font-size="13" font-weight="600" fill="#3B2E2A">Weak</text><text x="570" y="95" font-size="10.5" fill="#7A6660">first-try Coach 65% · Baseline 67%</text><line x1="570" x2="768" y1="224" y2="224" stroke="#EED7B5" stroke-width="1"/><text x="564" y="227.5" text-anchor="end" font-size="10" fill="#7A6660">0</text><line x1="570" x2="768" y1="200.8" y2="200.8" stroke="#EED7B5" stroke-width="1"/><text x="564" y="204.3" text-anchor="end" font-size="10" fill="#7A6660">1</text><line x1="570" x2="768" y1="177.6" y2="177.6" stroke="#EED7B5" stroke-width="1"/><text x="564" y="181.1" text-anchor="end" font-size="10" fill="#7A6660">2</text><line x1="570" x2="768" y1="154.4" y2="154.4" stroke="#EED7B5" stroke-width="1"/><text x="564" y="157.9" text-anchor="end" font-size="10" fill="#7A6660">3</text><line x1="570" x2="768" y1="131.2" y2="131.2" stroke="#EED7B5" stroke-width="1"/><text x="564" y="134.7" text-anchor="end" font-size="10" fill="#7A6660">4</text><line x1="570" x2="768" y1="108" y2="108" stroke="#EED7B5" stroke-width="1"/><text x="564" y="111.5" text-anchor="end" font-size="10" fill="#7A6660">5</text><text x="570" y="238" text-anchor="middle" font-size="10" fill="#7A6660">1</text><text x="611.6842105263158" y="238" text-anchor="middle" font-size="10" fill="#7A6660">5</text><text x="663.7894736842105" y="238" text-anchor="middle" font-size="10" fill="#7A6660">10</text><text x="715.8947368421052" y="238" text-anchor="middle" font-size="10" fill="#7A6660">15</text><text x="768" y="238" text-anchor="middle" font-size="10" fill="#7A6660">20</text><polyline points="570.0,224.0 580.4,224.0 590.8,224.0 601.3,200.8 611.7,200.8 622.1,177.6 632.5,177.6 642.9,177.6 653.4,177.6 663.8,154.4 674.2,154.4 684.6,154.4 695.1,154.4 705.5,154.4 715.9,154.4 726.3,154.4 736.7,154.4 747.2,154.4 757.6,154.4 768.0,131.2" fill="none" stroke="#eb6834" stroke-width="2" stroke-linejoin="round" stroke-linecap="round"/><circle cx="768.0" cy="131.2" r="4" fill="#eb6834" stroke="#FFF7EC" stroke-width="2"/><polyline points="570.0,224.0 580.4,224.0 590.8,200.8 601.3,200.8 611.7,200.8 622.1,177.6 632.5,177.6 642.9,177.6 653.4,177.6 663.8,154.4 674.2,154.4 684.6,154.4 695.1,154.4 705.5,131.2 715.9,131.2 726.3,131.2 736.7,131.2 747.2,131.2 757.6,108.0 768.0,108.0" fill="none" stroke="#2a78d6" stroke-width="2" stroke-linejoin="round" stroke-linecap="round"/><circle cx="768.0" cy="108.0" r="4" fill="#2a78d6" stroke="#FFF7EC" stroke-width="2"/><text x="776.0" y="111.5" font-size="10.5" font-weight="600" fill="#3B2E2A">5</text><text x="776.0" y="134.7" font-size="10.5" font-weight="600" fill="#3B2E2A">4</text></g>
<g><text x="50" y="270" font-size="13" font-weight="600" fill="#3B2E2A">Crossing-ten weakness</text><text x="50" y="285" font-size="10.5" fill="#7A6660">crossing ten: not named</text><line x1="50" x2="248" y1="414" y2="414" stroke="#EED7B5" stroke-width="1"/><text x="44" y="417.5" text-anchor="end" font-size="10" fill="#7A6660">0</text><line x1="50" x2="248" y1="390.8" y2="390.8" stroke="#EED7B5" stroke-width="1"/><text x="44" y="394.3" text-anchor="end" font-size="10" fill="#7A6660">1</text><line x1="50" x2="248" y1="367.6" y2="367.6" stroke="#EED7B5" stroke-width="1"/><text x="44" y="371.1" text-anchor="end" font-size="10" fill="#7A6660">2</text><line x1="50" x2="248" y1="344.4" y2="344.4" stroke="#EED7B5" stroke-width="1"/><text x="44" y="347.9" text-anchor="end" font-size="10" fill="#7A6660">3</text><line x1="50" x2="248" y1="321.2" y2="321.2" stroke="#EED7B5" stroke-width="1"/><text x="44" y="324.7" text-anchor="end" font-size="10" fill="#7A6660">4</text><line x1="50" x2="248" y1="298" y2="298" stroke="#EED7B5" stroke-width="1"/><text x="44" y="301.5" text-anchor="end" font-size="10" fill="#7A6660">5</text><text x="50" y="428" text-anchor="middle" font-size="10" fill="#7A6660">1</text><text x="91.68421052631578" y="428" text-anchor="middle" font-size="10" fill="#7A6660">5</text><text x="143.78947368421052" y="428" text-anchor="middle" font-size="10" fill="#7A6660">10</text><text x="195.89473684210526" y="428" text-anchor="middle" font-size="10" fill="#7A6660">15</text><text x="248" y="428" text-anchor="middle" font-size="10" fill="#7A6660">20</text><polyline points="50.0,414.0 60.4,390.8 70.8,367.6 81.3,367.6 91.7,344.4 102.1,344.4 112.5,344.4 122.9,344.4 133.4,344.4 143.8,344.4 154.2,344.4 164.6,321.2 175.1,321.2 185.5,321.2 195.9,321.2 206.3,321.2 216.7,298.0 227.2,298.0 237.6,298.0 248.0,298.0" fill="none" stroke="#eb6834" stroke-width="2" stroke-linejoin="round" stroke-linecap="round"/><circle cx="248.0" cy="298.0" r="4" fill="#eb6834" stroke="#FFF7EC" stroke-width="2"/><polyline points="50.0,414.0 60.4,390.8 70.8,367.6 81.3,367.6 91.7,344.4 102.1,344.4 112.5,344.4 122.9,344.4 133.4,344.4 143.8,344.4 154.2,321.2 164.6,321.2 175.1,298.0 185.5,298.0 195.9,298.0 206.3,298.0 216.7,298.0 227.2,298.0 237.6,298.0 248.0,298.0" fill="none" stroke="#2a78d6" stroke-width="2" stroke-linejoin="round" stroke-linecap="round"/><circle cx="248.0" cy="298.0" r="4" fill="#2a78d6" stroke="#FFF7EC" stroke-width="2"/><text x="256.0" y="301.5" font-size="10.5" font-weight="600" fill="#3B2E2A">5</text></g>
<g><text x="310" y="270" font-size="13" font-weight="600" fill="#3B2E2A">Change-unknown weakness <tspan fill="#7A6660" font-weight="400">(held out)</tspan></text><text x="310" y="285" font-size="10.5" fill="#7A6660">change unknown: not named</text><line x1="310" x2="508" y1="414" y2="414" stroke="#EED7B5" stroke-width="1"/><text x="304" y="417.5" text-anchor="end" font-size="10" fill="#7A6660">0</text><line x1="310" x2="508" y1="390.8" y2="390.8" stroke="#EED7B5" stroke-width="1"/><text x="304" y="394.3" text-anchor="end" font-size="10" fill="#7A6660">1</text><line x1="310" x2="508" y1="367.6" y2="367.6" stroke="#EED7B5" stroke-width="1"/><text x="304" y="371.1" text-anchor="end" font-size="10" fill="#7A6660">2</text><line x1="310" x2="508" y1="344.4" y2="344.4" stroke="#EED7B5" stroke-width="1"/><text x="304" y="347.9" text-anchor="end" font-size="10" fill="#7A6660">3</text><line x1="310" x2="508" y1="321.2" y2="321.2" stroke="#EED7B5" stroke-width="1"/><text x="304" y="324.7" text-anchor="end" font-size="10" fill="#7A6660">4</text><line x1="310" x2="508" y1="298" y2="298" stroke="#EED7B5" stroke-width="1"/><text x="304" y="301.5" text-anchor="end" font-size="10" fill="#7A6660">5</text><text x="310" y="428" text-anchor="middle" font-size="10" fill="#7A6660">1</text><text x="351.6842105263158" y="428" text-anchor="middle" font-size="10" fill="#7A6660">5</text><text x="403.7894736842105" y="428" text-anchor="middle" font-size="10" fill="#7A6660">10</text><text x="455.89473684210526" y="428" text-anchor="middle" font-size="10" fill="#7A6660">15</text><text x="508" y="428" text-anchor="middle" font-size="10" fill="#7A6660">20</text><polyline points="310.0,414.0 320.4,390.8 330.8,367.6 341.3,367.6 351.7,344.4 362.1,344.4 372.5,321.2 382.9,321.2 393.4,321.2 403.8,321.2 414.2,321.2 424.6,321.2 435.1,321.2 445.5,321.2 455.9,321.2 466.3,321.2 476.7,321.2 487.2,298.0 497.6,298.0 508.0,298.0" fill="none" stroke="#eb6834" stroke-width="2" stroke-linejoin="round" stroke-linecap="round"/><circle cx="508.0" cy="298.0" r="4" fill="#eb6834" stroke="#FFF7EC" stroke-width="2"/><polyline points="310.0,414.0 320.4,390.8 330.8,367.6 341.3,367.6 351.7,344.4 362.1,344.4 372.5,321.2 382.9,321.2 393.4,321.2 403.8,321.2 414.2,321.2 424.6,321.2 435.1,321.2 445.5,321.2 455.9,321.2 466.3,321.2 476.7,321.2 487.2,321.2 497.6,298.0 508.0,298.0" fill="none" stroke="#2a78d6" stroke-width="2" stroke-linejoin="round" stroke-linecap="round"/><circle cx="508.0" cy="298.0" r="4" fill="#2a78d6" stroke="#FFF7EC" stroke-width="2"/><text x="516.0" y="301.5" font-size="10.5" font-weight="600" fill="#3B2E2A">5</text></g>
<g><text x="570" y="270" font-size="13" font-weight="600" fill="#3B2E2A">Fast fatigue <tspan fill="#7A6660" font-weight="400">(held out)</tspan></text><text x="570" y="285" font-size="10.5" fill="#7A6660">first-try Coach 75% · Baseline 70%</text><line x1="570" x2="768" y1="414" y2="414" stroke="#EED7B5" stroke-width="1"/><text x="564" y="417.5" text-anchor="end" font-size="10" fill="#7A6660">0</text><line x1="570" x2="768" y1="390.8" y2="390.8" stroke="#EED7B5" stroke-width="1"/><text x="564" y="394.3" text-anchor="end" font-size="10" fill="#7A6660">1</text><line x1="570" x2="768" y1="367.6" y2="367.6" stroke="#EED7B5" stroke-width="1"/><text x="564" y="371.1" text-anchor="end" font-size="10" fill="#7A6660">2</text><line x1="570" x2="768" y1="344.4" y2="344.4" stroke="#EED7B5" stroke-width="1"/><text x="564" y="347.9" text-anchor="end" font-size="10" fill="#7A6660">3</text><line x1="570" x2="768" y1="321.2" y2="321.2" stroke="#EED7B5" stroke-width="1"/><text x="564" y="324.7" text-anchor="end" font-size="10" fill="#7A6660">4</text><line x1="570" x2="768" y1="298" y2="298" stroke="#EED7B5" stroke-width="1"/><text x="564" y="301.5" text-anchor="end" font-size="10" fill="#7A6660">5</text><text x="570" y="428" text-anchor="middle" font-size="10" fill="#7A6660">1</text><text x="611.6842105263158" y="428" text-anchor="middle" font-size="10" fill="#7A6660">5</text><text x="663.7894736842105" y="428" text-anchor="middle" font-size="10" fill="#7A6660">10</text><text x="715.8947368421052" y="428" text-anchor="middle" font-size="10" fill="#7A6660">15</text><text x="768" y="428" text-anchor="middle" font-size="10" fill="#7A6660">20</text><polyline points="570.0,414.0 580.4,390.8 590.8,390.8 601.3,367.6 611.7,367.6 622.1,367.6 632.5,367.6 642.9,367.6 653.4,344.4 663.8,344.4 674.2,344.4 684.6,344.4 695.1,344.4 705.5,321.2 715.9,321.2 726.3,321.2 736.7,298.0 747.2,298.0 757.6,298.0 768.0,298.0" fill="none" stroke="#eb6834" stroke-width="2" stroke-linejoin="round" stroke-linecap="round"/><circle cx="768.0" cy="298.0" r="4" fill="#eb6834" stroke="#FFF7EC" stroke-width="2"/><polyline points="570.0,414.0 580.4,390.8 590.8,390.8 601.3,367.6 611.7,367.6 622.1,367.6 632.5,367.6 642.9,367.6 653.4,344.4 663.8,344.4 674.2,344.4 684.6,344.4 695.1,321.2 705.5,321.2 715.9,321.2 726.3,321.2 736.7,321.2 747.2,298.0 757.6,298.0 768.0,298.0" fill="none" stroke="#2a78d6" stroke-width="2" stroke-linejoin="round" stroke-linecap="round"/><circle cx="768.0" cy="298.0" r="4" fill="#2a78d6" stroke="#FFF7EC" stroke-width="2"/><text x="776.0" y="301.5" font-size="10.5" font-weight="600" fill="#3B2E2A">5</text></g>
<text x="50" y="466" font-size="10.5" fill="#7A6660">Regenerated from 2026-09-11T23-05-00Z.json with pnpm eval:chart. Simulated Learners only; never a real child's data.</text>
</svg>
